<svg id="svg" version="1.1" xmlns="http://www.w3.org/2000/svg" xmlns:xlink="http://www.w3.org/1999/xlink" width="400" height="221.45833333333331" viewBox="0, 0, 400,221.45833333333331"><g id="svgg"><path id="path0" d="M143.958 111.146 L 143.958 121.458 155.208 121.458 C 161.396 121.458,166.458 121.518,166.458 121.590 C 166.458 121.772,164.594 125.427,164.244 125.932 C 164.087 126.158,163.958 126.502,163.958 126.696 C 163.958 126.890,163.883 127.080,163.792 127.118 C 163.567 127.212,161.628 130.833,161.802 130.833 C 161.878 130.833,161.794 130.997,161.616 131.198 C 161.438 131.398,161.060 132.031,160.776 132.604 C 160.491 133.177,159.787 134.536,159.212 135.625 C 158.636 136.714,157.796 138.307,157.345 139.167 C 156.895 140.026,155.661 142.356,154.603 144.344 C 153.546 146.332,152.710 147.986,152.747 148.020 C 152.910 148.172,160.477 151.882,160.517 151.830 C 160.542 151.797,161.453 149.990,162.542 147.813 C 165.159 142.584,170.194 132.706,171.012 131.198 C 171.369 130.539,171.609 130.000,171.546 130.000 C 171.482 130.000,171.631 129.718,171.876 129.374 C 173.395 127.241,174.162 123.610,174.310 117.865 L 174.431 113.125 163.570 113.125 L 152.708 113.125 152.708 106.979 L 152.708 100.833 148.333 100.833 L 143.958 100.833 143.958 111.146 M185.287 111.727 C 184.940 112.100,183.278 113.542,183.194 113.542 C 183.132 113.542,182.551 114.031,181.584 114.896 C 181.456 115.010,180.813 115.556,180.156 116.109 C 179.191 116.920,178.997 117.184,179.153 117.475 C 179.327 117.800,182.192 121.132,183.229 122.216 C 183.739 122.750,185.212 124.512,185.587 125.037 C 185.829 125.377,185.705 125.645,184.519 127.346 C 183.131 129.337,181.458 132.340,181.458 132.840 C 181.458 132.997,181.365 133.125,181.250 133.125 C 181.135 133.125,181.042 133.341,181.042 133.604 C 181.042 133.868,180.949 134.176,180.836 134.289 C 180.074 135.051,179.792 137.700,179.792 144.096 L 179.792 150.417 184.375 150.417 L 188.958 150.417 188.963 139.740 L 188.968 129.063 189.848 130.047 C 190.333 130.588,191.057 131.420,191.458 131.896 C 191.859 132.372,192.283 132.867,192.400 132.995 C 192.517 133.124,193.824 134.635,195.306 136.354 C 196.787 138.073,198.144 139.632,198.322 139.818 C 198.500 140.005,198.825 140.380,199.044 140.652 C 199.547 141.275,201.858 143.950,202.284 144.402 C 202.460 144.588,202.785 144.963,203.006 145.235 C 203.226 145.507,204.019 146.432,204.768 147.292 C 205.516 148.151,206.273 149.026,206.449 149.235 C 206.626 149.445,207.167 150.054,207.652 150.589 C 208.136 151.125,208.535 151.633,208.537 151.719 C 208.546 152.019,208.870 151.870,209.537 151.262 C 209.906 150.925,210.380 150.526,210.590 150.377 C 210.982 150.097,213.131 148.270,213.732 147.706 C 213.917 147.532,214.372 147.174,214.742 146.910 C 215.113 146.646,215.417 146.347,215.417 146.247 C 215.417 146.072,213.523 143.665,213.042 143.229 C 212.916 143.115,212.274 142.354,211.615 141.540 C 210.956 140.725,210.019 139.628,209.531 139.102 C 209.044 138.576,208.458 137.890,208.229 137.578 C 208.000 137.266,207.663 136.824,207.480 136.595 C 207.121 136.146,207.012 136.353,210.050 131.711 C 211.210 129.938,212.709 126.667,212.361 126.667 C 212.295 126.667,212.342 126.544,212.466 126.395 C 212.931 125.834,213.135 123.114,213.079 118.229 L 213.021 113.229 208.490 113.173 L 203.958 113.117 203.952 122.861 L 203.945 132.604 203.407 131.979 C 203.111 131.635,202.329 130.745,201.669 130.000 C 201.009 129.255,200.153 128.271,199.766 127.813 C 199.380 127.354,199.016 126.932,198.959 126.875 C 198.901 126.818,198.339 126.163,197.708 125.421 C 197.078 124.678,196.422 123.920,196.250 123.736 C 196.078 123.553,195.563 122.950,195.104 122.398 C 193.449 120.403,189.927 116.298,188.822 115.073 C 188.496 114.712,187.901 114.018,187.500 113.529 C 186.704 112.561,185.674 111.454,185.580 111.466 C 185.547 111.471,185.415 111.588,185.287 111.727 M279.165 111.931 C 278.879 112.190,278.387 112.603,278.071 112.848 C 277.406 113.362,275.415 115.073,274.598 115.833 C 274.289 116.120,273.792 116.535,273.492 116.757 C 272.854 117.228,272.824 117.164,274.709 119.293 C 275.409 120.083,276.874 121.760,277.966 123.019 L 279.951 125.309 279.350 126.181 C 279.020 126.661,278.750 127.155,278.750 127.277 C 278.750 127.400,278.656 127.500,278.542 127.500 C 278.427 127.500,278.333 127.593,278.333 127.706 C 278.333 127.819,278.169 128.103,277.969 128.337 C 277.081 129.371,275.366 132.737,274.559 135.028 C 274.118 136.279,274.087 136.753,274.008 143.385 L 273.924 150.417 278.420 150.417 L 282.917 150.417 282.924 139.635 L 282.931 128.854 283.360 129.375 C 283.596 129.661,284.085 130.225,284.446 130.626 C 284.808 131.028,285.938 132.341,286.958 133.543 C 287.978 134.745,289.079 135.976,289.406 136.277 C 289.733 136.579,290.000 136.888,290.000 136.963 C 290.000 137.039,291.005 138.245,292.233 139.644 C 293.461 141.043,294.657 142.412,294.889 142.687 C 295.122 142.962,296.011 143.994,296.866 144.979 C 297.720 145.965,298.564 146.947,298.741 147.162 C 299.290 147.828,302.358 151.338,302.658 151.642 C 302.898 151.886,303.042 151.839,303.606 151.331 C 303.972 151.002,304.458 150.569,304.688 150.370 C 304.917 150.171,305.385 149.761,305.729 149.459 C 306.073 149.158,306.893 148.486,307.552 147.966 C 308.211 147.447,308.750 146.948,308.750 146.858 C 308.750 146.768,308.938 146.635,309.167 146.563 C 309.705 146.392,309.692 146.275,309.053 145.521 C 308.762 145.177,308.205 144.521,307.816 144.063 C 307.426 143.604,306.563 142.574,305.898 141.774 C 305.232 140.973,304.547 140.172,304.375 139.993 C 304.203 139.815,303.734 139.257,303.333 138.754 C 302.932 138.251,302.300 137.506,301.928 137.097 C 301.077 136.162,300.968 136.532,302.982 133.524 C 306.819 127.793,307.071 126.866,307.145 118.177 L 307.188 113.125 302.656 113.125 L 298.125 113.125 298.125 122.917 C 298.125 133.906,298.284 133.042,296.632 131.033 C 296.212 130.522,295.603 129.816,295.278 129.463 C 294.953 129.110,294.313 128.370,293.854 127.818 C 293.396 127.266,292.833 126.603,292.604 126.343 C 292.375 126.084,291.719 125.328,291.146 124.663 C 290.573 123.998,289.893 123.235,289.635 122.968 C 289.378 122.700,289.167 122.438,289.167 122.385 C 289.167 122.331,288.945 122.031,288.674 121.717 C 287.131 119.927,285.084 117.573,284.900 117.378 C 284.783 117.254,284.290 116.683,283.805 116.110 C 283.320 115.536,282.710 114.829,282.451 114.537 C 282.191 114.246,281.510 113.439,280.938 112.745 C 279.727 111.277,279.830 111.324,279.165 111.931 M218.542 117.292 L 218.542 121.458 221.146 121.458 L 223.750 121.458 223.750 128.233 L 223.750 135.008 228.281 134.952 L 232.813 134.896 232.866 124.010 L 232.920 113.125 225.731 113.125 L 218.542 113.125 218.542 117.292 M238.472 113.264 C 238.396 113.340,238.333 115.192,238.333 117.378 L 238.333 121.354 249.801 121.299 L 261.269 121.243 260.444 122.340 C 258.200 125.326,258.141 125.760,258.129 139.295 L 258.118 150.417 262.718 150.417 L 267.317 150.417 267.237 136.094 C 267.193 128.216,267.088 121.490,267.004 121.146 C 266.920 120.802,266.757 120.100,266.643 119.587 C 266.199 117.596,264.662 115.157,262.972 113.764 L 262.197 113.125 250.404 113.125 C 243.918 113.125,238.549 113.188,238.472 113.264 " stroke="none" fill="#04acb4" fill-rule="evenodd"></path><path id="path1" d="M307.083 0.103 C 307.083 0.162,322.750 21.209,341.897 46.876 L 376.711 93.542 388.356 93.542 L 400.000 93.542 399.990 92.865 C 399.981 92.296,394.469 84.818,365.551 46.146 L 331.123 0.104 319.103 0.050 C 312.492 0.021,307.083 0.045,307.083 0.103 M373.279 0.260 C 373.392 0.404,379.367 8.396,386.556 18.021 C 393.746 27.646,399.712 35.610,399.814 35.719 C 399.923 35.835,400.000 28.510,400.000 17.958 L 400.000 0.000 386.537 0.000 C 375.796 0.000,373.116 0.053,373.279 0.260 M276.635 57.104 C 274.991 58.491,273.480 59.784,273.277 59.979 C 272.926 60.315,273.074 60.523,276.262 64.177 C 278.107 66.291,279.661 68.125,279.716 68.253 C 279.770 68.381,279.092 69.593,278.209 70.947 C 274.333 76.893,273.958 78.300,273.958 86.923 L 273.958 93.542 278.436 93.542 L 282.913 93.542 282.967 82.821 L 283.021 72.100 292.899 83.550 C 298.333 89.848,302.816 95.000,302.862 95.000 C 302.990 95.000,309.583 89.364,309.583 89.255 C 309.583 89.203,307.740 86.988,305.486 84.334 C 303.233 81.680,301.389 79.405,301.389 79.279 C 301.389 79.153,302.170 77.884,303.125 76.459 C 306.695 71.130,307.096 69.723,307.237 62.031 L 307.342 56.250 302.736 56.250 L 298.129 56.250 298.075 65.977 L 298.021 75.704 288.966 65.144 C 283.985 59.336,279.846 54.583,279.768 54.583 C 279.689 54.583,278.280 55.718,276.635 57.104 M3.125 60.417 L 3.125 64.583 5.747 64.583 C 7.188 64.583,8.332 64.654,8.288 64.740 C 5.920 69.345,5.961 69.125,5.881 77.656 L 5.810 85.208 2.905 85.208 L 0.000 85.208 0.000 89.375 L 0.000 93.542 5.394 93.542 L 10.787 93.542 11.955 92.393 C 14.827 89.566,14.992 88.638,14.996 75.260 L 15.000 64.583 21.250 64.583 L 27.500 64.583 27.500 79.063 L 27.500 93.542 32.083 93.542 L 36.667 93.542 36.667 74.896 L 36.667 56.250 19.896 56.250 L 3.125 56.250 3.125 60.417 M43.804 70.990 C 43.870 84.386,43.910 85.842,44.247 86.968 C 44.976 89.405,46.229 91.355,47.930 92.699 L 48.996 93.542 59.115 93.542 L 69.234 93.542 70.230 92.903 C 71.735 91.937,73.831 89.598,74.560 88.069 C 75.908 85.246,75.891 85.454,75.986 70.156 L 76.073 56.250 67.620 56.250 L 59.167 56.250 59.167 60.417 L 59.167 64.583 63.027 64.583 L 66.887 64.583 66.829 74.498 L 66.771 84.412 66.279 84.810 C 65.723 85.261,54.353 85.434,53.550 85.004 C 52.745 84.574,52.708 83.910,52.708 69.865 L 52.708 56.250 48.220 56.250 L 43.732 56.250 43.804 70.990 M81.458 60.417 L 81.458 64.583 84.167 64.583 L 86.875 64.583 86.875 71.354 L 86.875 78.125 91.458 78.125 L 96.042 78.125 96.042 67.188 L 96.042 56.250 88.750 56.250 L 81.458 56.250 81.458 60.417 M102.083 60.313 L 102.083 64.375 104.913 64.375 L 107.743 64.375 107.133 65.156 C 104.970 67.926,104.791 68.769,104.793 76.236 C 104.794 86.624,105.866 90.107,109.933 92.936 L 110.804 93.542 120.486 93.542 L 130.167 93.542 131.442 92.583 C 133.611 90.953,135.178 88.370,136.093 84.920 C 136.526 83.288,136.544 82.760,136.614 69.740 L 136.686 56.250 119.385 56.250 L 102.083 56.250 102.083 60.313 M142.500 60.417 L 142.500 64.583 153.872 64.583 L 165.244 64.583 164.496 65.602 C 162.398 68.460,162.306 69.178,162.298 82.760 L 162.292 93.542 166.884 93.542 L 171.477 93.542 171.408 78.802 C 171.347 65.585,171.303 63.937,170.981 62.848 C 170.204 60.221,168.737 57.917,167.135 56.807 L 166.332 56.250 154.416 56.250 L 142.500 56.250 142.500 60.417 M177.292 60.415 L 177.292 64.580 187.797 64.634 L 198.302 64.688 197.412 66.042 C 195.675 68.684,195.737 68.286,195.666 77.240 L 195.602 85.208 186.447 85.208 L 177.292 85.208 177.292 89.375 L 177.292 93.542 192.708 93.542 L 208.125 93.542 208.125 89.375 L 208.125 85.208 205.000 85.208 L 201.876 85.208 202.602 84.197 C 204.649 81.348,204.867 79.883,204.742 69.800 C 204.627 60.465,204.279 59.170,201.301 56.986 L 200.313 56.260 188.802 56.255 L 177.292 56.250 177.292 60.415 M210.464 60.365 L 210.521 64.479 213.177 64.537 L 215.833 64.596 215.833 71.360 L 215.833 78.125 220.417 78.125 L 225.000 78.125 225.000 67.188 L 225.000 56.250 217.704 56.250 L 210.408 56.250 210.464 60.365 M232.083 60.417 L 232.083 64.583 235.104 64.583 L 238.125 64.583 238.125 74.433 C 238.125 83.010,238.083 84.342,237.801 84.745 C 237.484 85.197,237.379 85.208,233.322 85.208 L 229.167 85.208 229.167 89.375 L 229.167 93.542 236.113 93.542 L 243.059 93.542 244.348 92.199 C 247.269 89.158,247.284 89.050,247.288 70.990 L 247.292 56.250 239.688 56.250 L 232.083 56.250 232.083 60.417 M252.708 60.417 L 252.708 64.583 255.417 64.583 L 258.125 64.583 258.125 79.063 L 258.125 93.542 262.708 93.542 L 267.292 93.542 267.292 74.896 L 267.292 56.250 260.000 56.250 L 252.708 56.250 252.708 60.417 M127.662 74.394 L 127.604 84.412 127.112 84.810 C 126.654 85.181,126.219 85.208,120.742 85.208 L 114.864 85.208 114.359 84.671 L 113.854 84.134 113.793 74.254 L 113.731 64.375 120.725 64.375 L 127.720 64.375 127.662 74.394 M93.333 172.500 L 93.333 176.667 95.938 176.667 L 98.542 176.667 98.542 199.063 L 98.542 221.458 103.125 221.458 L 107.708 221.458 107.708 194.896 L 107.708 168.333 100.521 168.333 L 93.333 168.333 93.333 172.500 M113.333 172.500 L 113.333 176.667 115.938 176.667 L 118.542 176.667 118.542 191.146 L 118.542 205.625 123.125 205.625 L 127.708 205.625 127.708 186.979 L 127.708 168.333 120.521 168.333 L 113.333 168.333 113.333 172.500 M133.333 172.500 L 133.333 176.667 144.790 176.667 L 156.247 176.667 155.508 177.636 C 153.339 180.476,153.333 180.523,153.333 194.106 L 153.333 205.625 157.813 205.625 L 162.292 205.625 162.288 191.302 C 162.284 173.575,162.195 173.021,158.832 169.657 L 157.508 168.333 145.421 168.333 L 133.333 168.333 133.333 172.500 M167.917 172.500 L 167.917 176.667 170.625 176.667 C 172.115 176.667,173.333 176.720,173.333 176.785 C 173.333 176.851,173.044 177.325,172.689 177.840 C 170.523 180.989,170.420 181.757,170.418 194.844 L 170.417 205.625 175.000 205.625 L 179.583 205.625 179.583 191.146 L 179.583 176.667 188.019 176.667 L 196.456 176.667 195.542 178.002 C 193.662 180.746,193.669 180.707,193.585 189.635 L 193.511 197.500 189.464 197.500 L 185.417 197.500 185.417 201.563 L 185.417 205.625 194.072 205.625 L 202.727 205.625 202.658 190.990 C 202.597 177.872,202.553 176.228,202.231 175.140 C 201.421 172.402,200.047 170.416,198.040 169.084 L 196.909 168.333 182.413 168.333 L 167.917 168.333 167.917 172.500 M208.125 172.500 L 208.125 176.667 210.833 176.667 L 213.542 176.667 213.542 191.146 L 213.542 205.625 218.125 205.625 L 222.708 205.625 222.708 186.979 L 222.708 168.333 215.417 168.333 L 208.125 168.333 208.125 172.500 M229.841 181.823 C 229.910 194.974,229.924 195.354,230.371 196.979 C 231.292 200.317,233.085 203.162,235.366 204.904 L 236.310 205.625 250.986 205.625 L 265.662 205.625 267.571 203.697 C 269.548 201.698,270.512 200.290,271.390 198.118 C 272.537 195.278,272.553 195.063,272.652 181.198 L 272.744 168.333 268.147 168.333 L 263.550 168.333 263.494 182.390 L 263.438 196.447 262.964 196.921 C 262.515 197.371,262.306 197.399,259.057 197.462 L 255.625 197.528 255.625 182.931 L 255.625 168.333 251.146 168.333 L 246.667 168.333 246.667 182.917 L 246.667 197.500 243.677 197.500 C 238.257 197.500,238.750 199.053,238.750 181.986 L 238.750 168.333 234.260 168.333 L 229.769 168.333 229.841 181.823 M278.333 172.500 L 278.333 176.667 288.976 176.667 L 299.619 176.667 298.870 177.687 C 296.903 180.366,296.682 181.685,296.673 190.781 L 296.667 197.500 287.500 197.500 L 278.333 197.500 278.333 201.563 L 278.333 205.625 293.854 205.625 L 309.375 205.625 309.375 201.563 L 309.375 197.500 306.128 197.500 L 302.882 197.500 303.492 196.719 C 305.745 193.834,305.834 193.318,305.828 183.237 C 305.822 172.418,305.566 171.409,302.208 168.932 L 301.396 168.333 289.865 168.333 L 278.333 168.333 278.333 172.500 " stroke="none" fill="#041c34" fill-rule="evenodd"></path><path id="path2" d="M143.847 111.146 C 143.847 116.875,143.873 119.189,143.906 116.288 C 143.939 113.386,143.939 108.699,143.906 105.871 C 143.873 103.043,143.847 105.417,143.847 111.146 M152.801 106.979 C 152.801 110.417,152.829 111.852,152.864 110.169 C 152.899 108.486,152.899 105.674,152.864 103.919 C 152.829 102.165,152.801 103.542,152.801 106.979 M307.173 118.021 C 307.173 120.656,307.203 121.706,307.239 120.353 C 307.275 119.000,307.275 116.844,307.239 115.561 C 307.202 114.279,307.173 115.385,307.173 118.021 M244.233 121.406 C 247.421 121.438,252.578 121.438,255.692 121.406 C 258.806 121.374,256.198 121.347,249.896 121.347 C 243.594 121.347,241.046 121.374,244.233 121.406 " stroke="none" fill="#04acbc" fill-rule="evenodd"></path><path id="path3" d="" stroke="none" fill="#04407c" fill-rule="evenodd"></path><path id="path4" d="M218.421 117.292 C 218.421 119.526,218.451 120.440,218.489 119.323 C 218.526 118.206,218.526 116.378,218.489 115.260 C 218.451 114.143,218.421 115.057,218.421 117.292 " stroke="none" fill="#044434" fill-rule="evenodd"></path></g></svg>